<svg xmlns="http://www.w3.org/2000/svg"
    xmlns:xlink="http://www.w3.org/1999/xlink" fill="#03c75a" height="201.32400512695312" width="201.32400512695312" version="1.1" xml:space="preserve" style="">
    <rect id="backgroundrect" width="100%" height="100%" x="0" y="0" fill="none" stroke="none"/>
    <g class="currentLayer" style="">
        <title>Layer 1</title>
        <circle cx="96.15155792236328" cy="18.97188949584961" r="10.083000183105469" id="svg_1" class="" stroke-width="9" stroke-opacity="1" stroke="#03c75a"/>
        <circle cx="43.095996618270874" cy="89.24966764450073" r="24.249666213989258" class="" stroke-width="9" stroke-opacity="1" stroke="#03c75a" id="svg_15"/>
        <circle cx="150.12911987304688" cy="18.97188949584961" r="10.083000183105469" id="svg_2" class="" stroke-width="9" stroke-opacity="1" stroke="#03c75a"/>
        <path d="M178.5044444179535,27.72952560226622 c-5.123,-7.918470107018947 -14.298,-12.645635232329369 -24.544,-12.645635232329369 v8.924230933189392 c6.631,0 12.568,3.0592263638973236 15.884,8.183519765734673 c3.316,5.125185824930668 3.316,11.243638552725315 0.0010000000000000007,16.368824377655983 l-32.122,49.6508512198925 c-3.315,5.124293401837349 -9.253,8.183519765734673 -15.884,8.184412188827991 c-6.631,0 -12.569,-3.0592263638973236 -15.885,-8.184412188827991 L73.83344441795349,48.55957302342358 c-3.315,-5.124293401837349 -3.315,-11.243638552725315 0,-16.367931954562664 s9.254,-8.184412188827991 15.885,-8.184412188827991 v-8.924230933189392 c-10.246,0 -19.422,4.727165125310421 -24.545,12.646527655422688 s-5.123,17.37369278073311 0,25.292162887752056 l32.121,49.6508512198925 c4.272,6.603038467466831 11.366,10.975911624729633 19.545,12.250291801989079 v23.945496439933777 c0,23.391301698982716 -15.473,42.421331740915775 -34.492,42.421331740915775 c-19.019,0 -34.491,-19.03003004193306 -34.491,-42.421331740915775 v-28.51113298535347 C59.24644441795349,108.28498854379359 67.8444444179535,99.27508499364558 67.8444444179535,88.50532310347262 c0,-12.296697802841663 -11.21,-22.300760678946972 -24.989,-22.300760678946972 s-24.989,10.004062876105309 -24.989,22.300760678946972 c0,10.76886946707964 8.598,19.77877301722765 19.989,21.851871863007545 v28.51113298535347 c0,28.312122635543346 19.959,51.34556267410517 44.492,51.34556267410517 c24.532,0 44.491,-23.03344003856182 44.491,-51.34556267410517 v-23.945496439933777 c8.178,-1.2743801772594456 15.273,-5.647253334522247 19.544,-12.250291801989079 l32.122,-49.6508512198925 C183.6284444179535,45.10321838299933 183.6284444179535,35.64799570928517 178.5044444179535,27.72952560226622 z" id="svg_3" class="" stroke-width="6" stroke="#03c75a" stroke-opacity="1"/>
        <rect fill="#ffffff" stroke="none" stroke-dashoffset="" fill-rule="nonzero" id="svg_6" x="27.666666264089706" y="74.33333505524539" width="7.555555743464413" height="30.22222297385765" style="color: rgb(0, 0, 0);" class=""/>
        <rect fill="#ffffff" stroke-dashoffset="" fill-rule="nonzero" id="svg_5" x="50.33333193865813" y="74.02353185057255" width="9.218390440447182" height="30.286269719687947" style="color: rgb(0, 0, 0);" class=""/>
        <rect fill="#ffffff" stroke="#ffffff" stroke-dashoffset="" fill-rule="nonzero" id="svg_12" x="39.119639194783986" y="73.45017568891912" width="7.0499117414233865" height="31.137543686087838" style="color: rgb(0, 0, 0);" class="" transform="rotate(-40.8661994934082 42.64458847045899,89.01894378662108) "/>
    </g>
</svg>