<svg xmlns="http://www.w3.org/2000/svg"
    xmlns:xlink="http://www.w3.org/1999/xlink" fill="#03c75a" height="800px" width="800px" version="1.1" id="Capa_1" viewBox="0 0 201.324 201.324" xml:space="preserve">
    <circle cx="95.596" cy="10.083" r="10.083"/>
    <circle cx="149.018" cy="10.083" r="10.083"/>
    <path d="M179.06,19.254c-5.123-8.873-14.298-14.17-24.544-14.17v10c6.631,0,12.568,3.428,15.884,9.17  c3.316,5.743,3.316,12.599,0.001,18.342l-32.122,55.636c-3.315,5.742-9.253,9.17-15.884,9.171c-6.631,0-12.569-3.428-15.885-9.171  L74.389,42.595c-3.315-5.742-3.315-12.599,0-18.341s9.254-9.171,15.885-9.171v-10c-10.246,0-19.422,5.297-24.545,14.171  s-5.123,19.468,0,28.341l32.121,55.636c4.272,7.399,11.366,12.299,19.545,13.727v26.832c0,26.211-15.473,47.535-34.492,47.535  c-19.019,0-34.491-21.324-34.491-47.535v-31.948C59.802,109.52,68.4,99.424,68.4,87.356c0-13.779-11.21-24.989-24.989-24.989  s-24.989,11.21-24.989,24.989c0,12.067,8.598,22.163,19.989,24.486v31.948c0,31.725,19.959,57.535,44.492,57.535  c24.532,0,44.491-25.81,44.491-57.535v-26.832c8.178-1.428,15.273-6.328,19.544-13.727l32.122-55.636  C184.184,38.722,184.184,28.127,179.06,19.254z"/>
    <path xmlns="http://www.w3.org/2000/svg" d="M345.698,35.031C302.871-7.818,237.54-11.92,199.79,25.829L96.977,128.655l-71.141,71.129   c-37.75,37.761-33.637,103.082,9.19,145.943c42.838,42.826,108.17,46.928,145.919,9.189l71.129-71.141l102.825-102.814   C392.66,143.201,388.536,77.87,345.698,35.031z M162.61,336.559c-27.583,27.583-76.578,23.447-109.227-9.19   c-32.637-32.648-36.773-81.633-9.19-109.228l71.129-71.129L233.74,265.43L162.61,336.559z" fill="#059145"/>
</svg>